<svg xmlns="http://www.w3.org/2000/svg" width="71.17" height="31.353" viewBox="0 0 71.17 31.353"><g transform="translate(-4842.832 -2069.444)"><rect width="4.046" height="23.599" transform="translate(4842.832 2069.444)"/><path d="M159.4,294.193a5.8,5.8,0,0,0-4.821,2.495V294.6h-3.742v23.734h4.045v-9.406a5.706,5.706,0,0,0,4.518,2.056c4.147,0,7.788-3.473,7.788-8.395S163.549,294.193,159.4,294.193Zm-.708,13.013a4.429,4.429,0,0,1-3.81-2.225v-4.788a4.429,4.429,0,0,1,3.81-2.225,4.625,4.625,0,0,1,0,9.237Z" transform="translate(4699.335 1782.466)"/><path d="M228.019,301.036c-2.7-.573-3.776-.809-3.776-1.787s1.382-1.517,2.9-1.517a7.421,7.421,0,0,1,3.978,1.382l2.023-2.967a10.2,10.2,0,0,0-6-1.955c-4.383,0-6.877,2.495-6.877,4.989,0,3.034,2.764,4.383,5.933,5.057,2.427.506,3.169.708,3.169,1.753,0,.978-1.382,1.45-3.034,1.45a7.514,7.514,0,0,1-4.821-2.292l-2.259,2.933a9.966,9.966,0,0,0,7.214,2.9c4.079,0,6.979-2.191,6.979-4.922C233.447,302.756,231.188,301.711,228.019,301.036Z" transform="translate(4647.985 1782.466)"/><path d="M289.469,294.192a8.4,8.4,0,1,0,8.53,8.394A8.383,8.383,0,0,0,289.469,294.192Zm0,13.013a4.623,4.623,0,1,1,4.416-4.618A4.374,4.374,0,0,1,289.469,307.2Z" transform="translate(4601.685 1782.467)"/><path d="M358.592,301.036c-2.7-.573-3.776-.809-3.776-1.787s1.382-1.517,2.9-1.517a7.421,7.421,0,0,1,3.978,1.382l2.023-2.967a10.2,10.2,0,0,0-6-1.955c-4.383,0-6.878,2.495-6.878,4.989,0,3.034,2.764,4.383,5.933,5.057,2.428.506,3.169.708,3.169,1.753,0,.978-1.382,1.45-3.034,1.45a7.514,7.514,0,0,1-4.821-2.292l-2.259,2.933a9.966,9.966,0,0,0,7.215,2.9c4.079,0,6.979-2.191,6.979-4.922C364.02,302.756,361.762,301.711,358.592,301.036Z" transform="translate(4549.981 1782.466)"/></g></svg>