<svg xmlns="http://www.w3.org/2000/svg" width="207.17" height="80.677" viewBox="0 0 207.17 80.677"><defs><style>.a{fill:#5c6ac1;}</style></defs><g transform="translate(-121.401 -219.041)"><rect width="6.025" height="35.148" transform="translate(121.401 236.214)"/><path d="M163.593,294.193a8.631,8.631,0,0,0-7.18,3.716V294.8h-5.574v35.349h6.025V316.135a8.5,8.5,0,0,0,6.728,3.063c6.176,0,11.6-5.172,11.6-12.5S169.769,294.193,163.593,294.193Zm-1.054,19.381a6.6,6.6,0,0,1-5.674-3.313v-7.13a6.6,6.6,0,0,1,5.674-3.314c4.067,0,6.527,2.963,6.527,6.879S166.606,313.574,162.538,313.574Z" transform="translate(-18.502 -47.234)"/><path d="M232.309,304.386c-4.017-.854-5.624-1.2-5.624-2.661s2.058-2.26,4.318-2.26a11.053,11.053,0,0,1,5.925,2.059l3.013-4.419A15.192,15.192,0,0,0,231,294.193c-6.527,0-10.243,3.716-10.243,7.431,0,4.519,4.117,6.528,8.837,7.532,3.615.753,4.72,1.054,4.72,2.611,0,1.456-2.058,2.159-4.519,2.159-4.017,0-7.18-3.414-7.18-3.414l-3.364,4.368A14.843,14.843,0,0,0,230,319.2c6.076,0,10.394-3.264,10.394-7.331C240.393,306.947,237.029,305.39,232.309,304.386Z" transform="translate(-61.501 -47.234)"/><path d="M293.644,294.192a12.5,12.5,0,1,0,12.7,12.5A12.485,12.485,0,0,0,293.644,294.192Zm0,19.381c-4.067,0-6.578-3.163-6.578-6.879s2.511-6.879,6.578-6.879,6.578,3.164,6.578,6.879S297.711,313.573,293.644,313.573Z" transform="translate(-100.271 -47.233)"/><path d="M362.882,304.386c-4.017-.854-5.624-1.2-5.624-2.661s2.058-2.26,4.318-2.26a11.053,11.053,0,0,1,5.925,2.059l3.012-4.419a15.192,15.192,0,0,0-8.938-2.912c-6.528,0-10.243,3.716-10.243,7.431,0,4.519,4.117,6.528,8.837,7.532,3.616.753,4.72,1.054,4.72,2.611,0,1.456-2.059,2.159-4.519,2.159-4.017,0-7.18-3.414-7.18-3.414l-3.364,4.368a14.843,14.843,0,0,0,10.745,4.318c6.076,0,10.394-3.264,10.394-7.331C370.966,306.947,367.6,305.39,362.882,304.386Z" transform="translate(-143.567 -47.234)"/><path class="a" d="M450.952,272.39a3.967,3.967,0,1,0-3.967-3.967A3.944,3.944,0,0,0,450.952,272.39Z" transform="translate(-204.632 -28.544)"/><rect class="a" width="6.026" height="23.8" rx="2" transform="translate(243.307 247.562)"/><path class="a" d="M487.034,294.275c-4.231,0-7-3.332-7.961-4.7-.247-.353-.623-.359-1.009-.038-.323.269-2.7,2.276-3.506,2.96a.67.67,0,0,0-.1.763A15.062,15.062,0,0,0,487.034,300c6.627,0,12.251-3.414,12.251-9.791s-4.469-8.787-9.842-10.8c-4.82-1.808-7.582-2.762-7.582-5.825,0-2.36,2.36-4.218,5.373-4.218a9.488,9.488,0,0,1,6.8,3.4.668.668,0,0,0,1.043.011c.978-.966,3.008-2.97,3.148-3.111.184-.184.292-.5.006-.972a15.374,15.374,0,0,0-11-5.049c-7.08,0-11.5,4.971-11.5,9.942,0,6.528,5.824,9.34,11,11.147,4.168,1.456,6.427,2.511,6.427,5.473C493.159,293.07,490.046,294.275,487.034,294.275Z" transform="translate(-221.851 -28.035)"/><path class="a" d="M558.563,294.193A23.855,23.855,0,0,0,549.98,296a.893.893,0,0,0-.46,1.237c.428,1.092,1.1,2.834,1.192,3.022.32.685.587.961,1.583.576a17.769,17.769,0,0,1,5.966-1.269c2.109,0,5.122,1,5.122,4.118v1.356a11.565,11.565,0,0,0-6.628-1.707c-5.172,0-9.34,3.314-9.34,7.883,0,5.071,4.118,7.984,8.586,7.984a9.635,9.635,0,0,0,7.833-3.615V318.6h5.574V303.08C569.409,297.658,565.392,294.193,558.563,294.193Zm4.82,17.222a7.058,7.058,0,0,1-5.524,2.762c-1.858,0-4.318-.552-4.318-3.063,0-2.56,2.561-3.364,4.419-3.364a12.035,12.035,0,0,1,5.423,1.205Z" transform="translate(-267.753 -47.234)"/><path class="a" d="M452.635,231.168a2.972,2.972,0,0,0,2.972-2.972v-3.211h58.73a14.474,14.474,0,0,1,10.318,4.187,14.623,14.623,0,0,1,4.287,10.436,2.972,2.972,0,1,0,5.944,0A20.393,20.393,0,0,0,515,219.057a2.965,2.965,0,0,0-.306-.016H452.635a3.914,3.914,0,0,0-2.972,3.715v5.44A2.972,2.972,0,0,0,452.635,231.168Z" transform="translate(-206.315 0)"/><path class="a" d="M503.266,380.137h-11.55c-.092,0-.186,0-.279.014-.038,0-.075.011-.112.016-.058.008-.116.015-.175.027s-.136.032-.2.05c-.026.007-.052.012-.079.02a2.881,2.881,0,0,0-.307.111l-21.825,9.086v-6.354a2.972,2.972,0,0,0-2.972-2.972H455.607v-3.512a2.972,2.972,0,0,0-5.944,0v6.484a2.972,2.972,0,0,0,2.972,2.972h10.159v7.809a2.9,2.9,0,0,0,.015.327c0,.027.008.055.012.082.009.068.017.137.031.205s.028.116.043.173c.009.036.017.072.027.108.027.09.059.177.094.262,0,0,0,.01.006.015h0a2.93,2.93,0,0,0,.185.364c.016.027.032.053.049.08a3.022,3.022,0,0,0,.222.31c.015.019.032.035.048.053a2.9,2.9,0,0,0,.222.228c.027.025.053.049.081.073a2.915,2.915,0,0,0,.3.226l.048.029a2.941,2.941,0,0,0,.3.167l.067.032a3,3,0,0,0,.367.14l.029.007a3.032,3.032,0,0,0,.344.077l.1.016a3.029,3.029,0,0,0,.356.026l.029,0a2.905,2.905,0,0,0,.3-.016l.054-.008c.077-.01.154-.02.231-.035s.127-.03.189-.048c.03-.008.06-.014.09-.023.089-.027.176-.059.261-.094l.016-.006h0l.021-.009,25.395-10.573h10.94a2.972,2.972,0,1,0,0-5.944Z" transform="translate(-206.315 -97.175)"/><path class="a" d="M633.431,293.112a2.972,2.972,0,0,0-3.845,1.7l-5.951,15.374-7.292-15.6-.007,0a3.005,3.005,0,0,0-5.48,2.46l-.008,0,9.691,21.133-1.514,3.91c-.144.326-.29.663-.439,1-.752,1.726-2.5,5.737-3.575,6.29a2.972,2.972,0,0,0,.1,5.942c4.633,0,7.012-5.468,8.924-9.861.153-.353.3-.7.453-1.036.019-.042.037-.086.054-.129l10.585-27.344A2.972,2.972,0,0,0,633.431,293.112Z" transform="translate(-307.485 -46.42)"/></g></svg>