<svg width="200" height="201" viewBox="0 0 200 201" fill="none" xmlns="http://www.w3.org/2000/svg">
<g clip-path="url(#clip0_1367_943)">
<g clip-path="url(#clip1_1367_943)">
<path d="M197 0.518555H-3V200.519H197V0.518555Z" fill="white"/>
<path d="M63.31 183.539C9.91004 163.739 11.76 104.369 32.75 56.2586C41.66 30.2186 66.14 15.9786 91.82 21.0086C117.5 26.0386 116.39 47.7886 139.69 67.3986C236.27 128.609 144.41 210.989 63.3 183.529" fill="#74C6BE"/>
<path d="M173.82 174.839L180.18 185.739" stroke="#231F20" stroke-width="3.6" stroke-linecap="round" stroke-linejoin="round"/>
<path d="M182.45 177.109L171.55 183.469" stroke="#231F20" stroke-width="3.6" stroke-linecap="round" stroke-linejoin="round"/>
<path d="M177 26.9087C180.529 26.9087 183.39 24.0478 183.39 20.5187C183.39 16.9896 180.529 14.1287 177 14.1287C173.471 14.1287 170.61 16.9896 170.61 20.5187C170.61 24.0478 173.471 26.9087 177 26.9087Z" fill="white" stroke="#231F20" stroke-width="3.6" stroke-miterlimit="10"/>
<path d="M116.64 164.319C151.577 164.319 179.9 135.996 179.9 101.059C179.9 66.1211 151.577 37.7986 116.64 37.7986C81.7023 37.7986 53.3799 66.1211 53.3799 101.059C53.3799 135.996 81.7023 164.319 116.64 164.319Z" fill="white" stroke="black" stroke-width="3.6" stroke-miterlimit="10"/>
<path d="M116.64 140.789C138.582 140.789 156.37 123.001 156.37 101.059C156.37 79.1163 138.582 61.3286 116.64 61.3286C94.6979 61.3286 76.9102 79.1163 76.9102 101.059C76.9102 123.001 94.6979 140.789 116.64 140.789Z" fill="white" stroke="black" stroke-width="3.6" stroke-miterlimit="10"/>
<path d="M116.64 117.039C125.466 117.039 132.62 109.884 132.62 101.059C132.62 92.2331 125.466 85.0786 116.64 85.0786C107.815 85.0786 100.66 92.2331 100.66 101.059C100.66 109.884 107.815 117.039 116.64 117.039Z" fill="white" stroke="black" stroke-width="3.6" stroke-miterlimit="10"/>
<path d="M118.38 102.339C117.51 103.189 116.14 103.189 115.27 102.339C114.42 101.469 114.42 100.099 115.27 99.2285L136.31 78.2185L132.87 57.5485C132.3 54.0685 133.44 50.5285 135.68 48.0385L149.73 34.2285C152.1 31.8585 156.14 32.9285 157.02 36.1685L162.26 55.3485L181.45 60.5985C184.7 61.4685 185.76 65.5085 183.39 67.8885L169.58 81.6985C167.1 84.1785 163.55 85.3285 160.06 84.7585L139.4 81.3185L118.39 102.359L118.38 102.339Z" fill="black"/>
<path d="M152.82 37.2986L139.01 51.1086C137.51 52.6086 136.83 54.7286 137.18 56.8186L140.1 74.4086L158.06 56.4586L152.82 37.2886V37.2986Z" fill="#5C6AC1"/>
<path d="M160.79 80.4186C162.86 80.7686 164.99 80.0886 166.25 78.5886L180.3 64.7786L161.14 59.5386L143.18 77.4986L160.78 80.4186H160.79Z" fill="#5C6AC1"/>
<path d="M85.3602 121.698C85.9402 121.298 86.5502 120.948 87.1802 120.638C89.3002 119.598 91.6702 119.018 94.1902 119.018C102.97 119.018 110.09 125.988 110.09 134.918C110.09 136.008 109.97 136.918 109.77 138.098C109.59 138.978 109.34 139.818 109.02 140.648C109.9 140.818 110.76 141.048 111.59 141.328C119.96 144.178 125.99 152.098 125.99 161.418C125.99 173.128 116.5 182.628 104.78 182.628H43.8102C30.6302 182.628 19.9502 171.948 19.9502 158.768C19.9502 148.368 26.6002 139.518 35.8902 136.258C35.8702 135.808 35.8602 135.368 35.8602 134.918C35.8602 120.268 47.7202 108.408 62.3702 108.408C71.2502 108.408 78.9502 112.768 83.9102 119.458C84.4202 120.168 84.9002 120.918 85.3502 121.698H85.3602Z" fill="black" stroke="black" stroke-width="3.6" stroke-miterlimit="10"/>
<path d="M106.72 141.909C106.34 141.229 106.14 140.419 106.57 139.689C107.13 138.219 107.45 136.609 107.45 134.919C107.45 127.599 101.52 121.669 94.2001 121.669C91.4701 121.669 88.9501 122.349 86.8401 123.909C86.2301 124.309 85.4801 124.439 84.7701 124.269C84.0401 124.099 83.4301 123.509 83.0601 123.029C78.9301 115.869 71.2101 111.069 62.3801 111.069C49.2101 111.069 38.5201 121.749 38.5201 134.929C38.5201 135.339 38.5401 135.739 38.5501 136.139C38.6001 137.319 37.8901 138.389 36.7801 138.769C28.5301 141.669 22.6201 149.539 22.6201 158.779C22.6201 170.489 32.1101 179.989 43.8301 179.989H104.8C115.05 179.989 123.36 171.689 123.36 161.429C123.36 152.449 116.98 144.959 108.52 143.239C107.76 143.089 107.1 142.609 106.73 141.909H106.72Z" fill="white"/>
<path d="M5.33008 68.5985C9.82008 48.2185 18.9301 24.8185 36.6101 13.9385" stroke="black" stroke-width="3.6" stroke-linecap="round" stroke-linejoin="round" stroke-dasharray="7.2 7.2"/>
</g>
</g>
<defs>
<clipPath id="clip0_1367_943">
<rect width="200" height="200" fill="white" transform="translate(0 0.518555)"/>
</clipPath>
<clipPath id="clip1_1367_943">
<rect width="200" height="200" fill="white" transform="translate(-3 0.518555)"/>
</clipPath>
</defs>
</svg>
