<svg width="52" height="52" viewBox="0 0 52 52" fill="none" xmlns="http://www.w3.org/2000/svg">
<rect width="52" height="52" fill="white"/>
<path d="M26 11.4688L29.5625 5.65625C30.9688 3.40625 33.5 2 36.2188 2H36.5C40.625 2 44 5.375 44 9.5C44 11.2812 43.4375 12.7812 42.5 14H45.5C47.9375 14 50 16.0625 50 18.5V24.5C50 26.4688 48.6875 28.1562 47 28.8125V44C47 47.375 44.2812 50 41 50H11C7.625 50 5 47.375 5 44V28.8125C3.21875 28.1562 2 26.4688 2 24.5V18.5C2 16.0625 3.96875 14 6.5 14H9.40625C8.46875 12.7812 8 11.2812 8 9.5C8 5.375 11.2812 2 15.5 2H15.6875C18.4062 2 20.9375 3.40625 22.3438 5.65625L26 11.4688ZM36.2188 5C34.5312 5 33.0312 5.9375 32.0938 7.25L27.875 14H36.5C38.9375 14 41 12.0312 41 9.5C41 7.0625 38.9375 5 36.5 5H36.2188ZM24.0312 14L19.8125 7.25C18.875 5.9375 17.375 5 15.6875 5H15.5C12.9688 5 11 7.0625 11 9.5C11 12.0312 12.9688 14 15.5 14H24.0312ZM6.5 17C5.65625 17 5 17.75 5 18.5V24.5C5 25.3438 5.65625 26 6.5 26H24.5V17H6.5ZM27.5 26H45.5C46.25 26 47 25.3438 47 24.5V18.5C47 17.75 46.25 17 45.5 17H27.5V26ZM24.5 29H8V44C8 45.6875 9.3125 47 11 47H24.5V29ZM27.5 47H41C42.5938 47 44 45.6875 44 44V29H27.5V47Z" fill="#02103F"/>
</svg>
