<svg width="52" height="52" viewBox="0 0 52 52" fill="none" xmlns="http://www.w3.org/2000/svg">
<rect width="52" height="52" fill="white"/>
<path d="M14 35.75C15.2188 35.75 16.25 36.7812 16.25 38C16.25 39.3125 15.2188 40.25 14 40.25C12.6875 40.25 11.75 39.3125 11.75 38C11.75 36.7812 12.6875 35.75 14 35.75ZM38 36.5C38.75 36.5 39.5 37.25 39.5 38C39.5 38.8438 38.75 39.5 38 39.5H21.5C20.6562 39.5 20 38.8438 20 38C20 37.25 20.6562 36.5 21.5 36.5H38ZM14.4688 29C14.0938 29 13.7188 28.9062 13.4375 28.625L10.625 25.9062C10.0625 25.25 10.0625 24.3125 10.625 23.75C11.1875 23.1875 12.2188 23.1875 12.7812 23.75L14.4688 25.4375L18.875 21.0312C19.4375 20.375 20.4688 20.375 21.0312 21.0312C21.5938 21.5938 21.5938 22.5312 21.0312 23.0938L15.5 28.625C15.2188 28.9062 14.8438 29 14.4688 29ZM14 16.25C12.6875 16.25 11.75 15.3125 11.75 14C11.75 12.7812 12.6875 11.75 14 11.75C15.2188 11.75 16.25 12.7812 16.25 14C16.25 15.3125 15.2188 16.25 14 16.25ZM38 24.5C38.75 24.5 39.5 25.25 39.5 26C39.5 26.8438 38.75 27.5 38 27.5H24.5C23.6562 27.5 23 26.8438 23 26C23 25.25 23.6562 24.5 24.5 24.5H38ZM41 2C44.2812 2 47 4.71875 47 8V44C47 47.375 44.2812 50 41 50H11C7.625 50 5 47.375 5 44V8C5 4.71875 7.625 2 11 2H41ZM44 44V8C44 6.40625 42.5938 5 41 5H11C9.3125 5 8 6.40625 8 8V44C8 45.6875 9.3125 47 11 47H41C42.5938 47 44 45.6875 44 44ZM38 12.5C38.75 12.5 39.5 13.25 39.5 14C39.5 14.8438 38.75 15.5 38 15.5H21.5C20.6562 15.5 20 14.8438 20 14C20 13.25 20.6562 12.5 21.5 12.5H38Z" fill="#02103F"/>
</svg>
