<svg width="52" height="52" viewBox="0 0 52 52" fill="none" xmlns="http://www.w3.org/2000/svg">
<rect width="52" height="52" fill="white"/>
<path d="M19.8125 8.75C19.4375 9.40625 18.7812 9.6875 18.0312 9.5C15.6875 8.75 12.9688 9.3125 11.0938 11.1875C9.21875 13.0625 8.65625 15.7812 9.40625 18.125C9.59375 18.875 9.3125 19.5312 8.65625 19.9062C6.40625 21.0312 5 23.375 5 26C5 28.7188 6.40625 30.9688 8.65625 32.1875C9.3125 32.5625 9.59375 33.2188 9.40625 33.9688C8.65625 36.3125 9.21875 39.0312 11.0938 40.9062C12.9688 42.7812 15.6875 43.3438 18.0312 42.5938C18.7812 42.4062 19.5312 42.6875 19.8125 43.3438C21.0312 45.5938 23.2812 47 26 47C28.625 47 30.9688 45.5938 32.0938 43.3438C32.4688 42.6875 33.2188 42.4062 33.875 42.5938C36.2188 43.3438 38.9375 42.7812 40.8125 40.9062C42.6875 39.0312 43.25 36.3125 42.5 33.9688C42.3125 33.2188 42.5938 32.4688 43.25 32.1875C45.5 30.9688 47 28.7188 47 26C47 23.375 45.5 21.0312 43.25 19.9062C42.5938 19.5312 42.3125 18.7812 42.5 18.125C43.25 15.7812 42.6875 13.0625 40.8125 11.1875C38.9375 9.3125 36.2188 8.75 33.875 9.5C33.125 9.6875 32.4688 9.40625 32.0938 8.75C30.9688 6.5 28.625 5 26 5C23.2812 5 21.0312 6.5 19.8125 8.75ZM26 2C29.375 2 32.375 3.78125 34.1562 6.3125C37.25 5.75 40.5312 6.6875 42.9688 9.03125C45.3125 11.4688 46.25 14.75 45.6875 17.8438C48.2188 19.625 50 22.625 50 26C50 29.4688 48.2188 32.375 45.6875 34.25C46.25 37.3438 45.3125 40.625 42.9688 42.9688C40.5312 45.4062 37.25 46.3438 34.1562 45.7812C32.375 48.3125 29.375 50 26 50C22.5312 50 19.625 48.3125 17.75 45.7812C14.6562 46.3438 11.375 45.4062 9.03125 42.9688C6.59375 40.625 5.65625 37.3438 6.21875 34.25C3.6875 32.375 2 29.4688 2 26C2 22.625 3.6875 19.625 6.21875 17.8438C5.65625 14.75 6.59375 11.4688 9.03125 9.03125C11.375 6.6875 14.6562 5.75 17.75 6.3125C19.625 3.78125 22.5312 2 26 2ZM36.0312 21.125L24.0312 33.125C23.4688 33.6875 22.4375 33.6875 21.875 33.125L15.875 27.125C15.3125 26.5625 15.3125 25.5312 15.875 24.9688C16.4375 24.4062 17.4688 24.4062 18.0312 24.9688L23 29.9375L33.875 18.9688C34.4375 18.4062 35.4688 18.4062 36.0312 18.9688C36.5938 19.5312 36.5938 20.5625 36.0312 21.125Z" fill="#02103F"/>
</svg>
