<svg width="30" height="22" viewBox="0 0 30 22" fill="none" xmlns="http://www.w3.org/2000/svg">
<g clip-path="url(#clip0_1443_2629)">
<path d="M0 0H29.3333V22H0" fill="#BD3D44"/>
<path d="M0 2.53418H29.3333H0ZM0 5.9121H29.3333H0ZM0 9.30376H29.3333H0ZM0 12.6954H29.3333H0ZM0 16.0871H29.3333H0ZM0 19.4788H29.3333H0Z" fill="#2F469C"/>
<path d="M0 2.53418H29.3333M0 5.9121H29.3333M0 9.30376H29.3333M0 12.6954H29.3333M0 16.0871H29.3333M0 19.4788H29.3333" stroke="white" stroke-width="1.69583"/>
<path d="M0 0H16.72V11.8479H0" fill="#192F5D"/>
</g>
<defs>
<clipPath id="clip0_1443_2629">
<path d="M0 2.2C0 0.984974 0.984974 0 2.2 0H27.1333C28.3484 0 29.3333 0.984974 29.3333 2.2V19.8C29.3333 21.015 28.3484 22 27.1333 22H2.2C0.984975 22 0 21.015 0 19.8V2.2Z" fill="white"/>
</clipPath>
</defs>
</svg>
