<?xml version="1.0" encoding="utf-8"?>
<!-- Generator: Adobe Illustrator 28.2.0, SVG Export Plug-In . SVG Version: 6.00 Build 0)  -->
<svg version="1.1" id="Layer_1" xmlns="http://www.w3.org/2000/svg" xmlns:xlink="http://www.w3.org/1999/xlink" x="0px" y="0px"
	 width="100px" height="100px" viewBox="0 0 100 100" style="enable-background:new 0 0 100 100;" xml:space="preserve">
<style type="text/css">
	.st0{fill:#5D22AB;}
</style>
<path class="st0" d="M69.1,13.5C73,9.4,80,12.2,80,17.9V79c0,5.6-7,8.4-10.9,4.4l-3.6-3.9c-6.9-7.2-15.8-11.7-25.5-13v15.6
	c0,4.8-4.1,8.8-8.8,8.8h-2.5c-4.8,0-8.8-3.9-8.8-8.8V65.8c-5.6,0-10-4.4-10-10v-15c0-5.5,4.4-10,10-10h12.3l4.5-0.2
	c10.9-0.6,21.1-5.3,28.6-13.3L69.1,13.5z M75,17.9c0-1.2-1.4-1.7-2.2-0.9l-3.8,3.9c-6.6,6.9-15,11.7-24.1,13.8v27.7
	c9.1,2,17.5,6.7,24.1,13.8l3.8,3.9c0.8,0.8,2.2,0.2,2.2-0.9V17.9z M40,61.5V35.4c-0.9,0.2-1.9,0.2-2.8,0.3l-4.7,0.2H20
	c-2.8,0-5,2.3-5,5v15c0,2.8,2.2,5,5,5h12.5l4.7,0.3C38.1,61.1,39.1,61.3,40,61.5z M25,65.8v16.3c0,2.2,1.6,3.8,3.8,3.8h2.5
	c2,0,3.8-1.6,3.8-3.8V66l-2.7-0.2H25z M87.5,40.8c1.2,0,2.5,1.2,2.5,2.5v10c0,1.4-1.2,2.5-2.5,2.5c-1.4,0-2.5-1.1-2.5-2.5v-10
	C85,42.1,86.1,40.8,87.5,40.8z"/>
</svg>
