<svg width="150" height="59" viewBox="0 0 150 59" fill="none" xmlns="http://www.w3.org/2000/svg">
<path d="M4.36279 12.4146H0V37.8263H4.36279V12.4146Z" fill="#02103F"/>
<path d="M17.15 20.1851C13.586 20.1851 11.9507 22.871 11.9507 22.871V20.6202H7.91602V46.1769H12.2788V36.0482C12.8598 36.7734 14.4226 38.2641 17.15 38.2641C21.6204 38.2641 25.5474 34.5253 25.5474 29.2233C25.5474 23.9212 21.623 20.1851 17.15 20.1851ZM16.3888 34.1976C13.5161 34.1976 12.2815 31.8018 12.2815 31.8018V26.6474C12.2815 26.6474 13.5188 24.2516 16.3888 24.2516C19.3341 24.2516 21.1147 26.3923 21.1147 29.2259C21.1147 32.0542 19.3314 34.1976 16.3888 34.1976Z" fill="#02103F"/>
<path d="M35.7712 27.5526C32.8635 26.9348 31.6989 26.6824 31.6989 25.6295C31.6989 24.5766 33.189 23.9964 34.8244 23.9964C37.151 23.9964 39.1145 25.4844 39.1145 25.4844L41.2959 22.2908C41.2959 22.2908 38.7138 20.1851 34.8244 20.1851C30.0985 20.1851 27.4087 22.871 27.4087 25.5569C27.4087 28.8231 30.3889 30.2761 33.8076 31.0014C36.4248 31.5466 37.2263 31.7642 37.2263 32.8896C37.2263 33.9425 35.7362 34.4501 33.9556 34.4501C31.0479 34.4501 28.7563 31.9817 28.7563 31.9817L26.3193 35.1404C26.3193 35.1404 29.0468 38.2615 34.0981 38.2615C38.4959 38.2615 41.6241 35.9005 41.6241 32.9621C41.6241 29.4059 39.1898 28.2805 35.7712 27.5526Z" fill="#02103F"/>
<path d="M52.1087 20.1851C46.982 20.1851 42.9097 24.1415 42.9097 29.2259C42.9097 34.2728 46.982 38.2668 52.1087 38.2668C57.2353 38.2668 61.3076 34.2728 61.3076 29.2259C61.3076 24.1415 57.2353 20.1851 52.1087 20.1851ZM52.1087 34.1976C49.1634 34.1976 47.3451 31.9119 47.3451 29.2233C47.3451 26.5346 49.1634 24.2489 52.1087 24.2489C55.0539 24.2489 56.8722 26.5373 56.8722 29.2233C56.8722 31.9092 55.0539 34.1976 52.1087 34.1976Z" fill="#02103F"/>
<path d="M70.8915 27.5526C67.9839 26.9348 66.8192 26.6824 66.8192 25.6295C66.8192 24.5766 68.3094 23.9964 69.9447 23.9964C72.2714 23.9964 74.2349 25.4844 74.2349 25.4844L76.4163 22.2908C76.4163 22.2908 73.8341 20.1851 69.9447 20.1851C65.2188 20.1851 62.5291 22.871 62.5291 25.5569C62.5291 28.8231 65.5093 30.2761 68.928 31.0014C71.5451 31.5466 72.3467 31.7642 72.3467 32.8896C72.3467 33.9425 70.8566 34.4501 69.0732 34.4501C66.1656 34.4501 63.8739 31.9817 63.8739 31.9817L61.437 35.1404C61.437 35.1404 64.1644 38.2615 69.2185 38.2615C73.6163 38.2615 76.7444 35.9005 76.7444 32.9621C76.7471 29.4059 74.3102 28.2805 70.8915 27.5526Z" fill="#02103F"/>
<path d="M90.4459 17.934C92.0463 17.934 93.3186 16.6635 93.3186 15.0654C93.3186 13.4672 92.0463 12.1968 90.4459 12.1968C88.8455 12.1968 87.5732 13.4672 87.5732 15.0654C87.5732 16.6635 88.8455 17.934 90.4459 17.934Z" fill="#2F469C"/>
<path d="M88.8025 37.829H92.0894C92.3852 37.829 92.6273 37.5872 92.6273 37.2918V21.1573C92.6273 20.8619 92.3852 20.6201 92.0894 20.6201H88.8025C88.5066 20.6201 88.2645 20.8619 88.2645 21.1573V37.2918C88.2645 37.5872 88.5066 37.829 88.8025 37.829Z" fill="#2F469C"/>
<path d="M104.102 34.1249C101.038 34.1249 99.0317 31.7156 98.3378 30.7271C98.1576 30.472 97.8859 30.4666 97.6062 30.7003C97.3721 30.8937 95.6534 32.3468 95.067 32.841C94.9514 32.9377 94.8868 33.2197 94.9971 33.3916C95.6211 34.3505 98.4965 38.2639 104.099 38.2639C108.898 38.2639 112.97 35.7955 112.97 31.1837C112.97 26.572 109.734 24.8315 105.845 23.3784C102.354 22.0703 100.355 21.3827 100.355 19.1668C100.355 17.4613 102.063 16.1183 104.244 16.1183C106.733 16.1183 108.5 17.8158 109.169 18.5759C109.387 18.8015 109.67 18.8391 109.925 18.584C110.633 17.8856 112.104 16.4379 112.206 16.3358C112.341 16.2016 112.416 15.9759 112.212 15.6321C111.878 15.0788 108.637 11.9819 104.247 11.9819C99.1205 11.9819 95.9224 15.5757 95.9224 19.1695C95.9224 23.8887 100.14 25.922 103.884 27.23C106.902 28.2829 108.537 29.0457 108.537 31.1864C108.537 33.2546 106.283 34.1249 104.102 34.1249Z" fill="#2F469C"/>
<path d="M122.659 20.1851C119.982 20.1851 117.526 21.0472 116.445 21.4904C116.071 21.6435 115.966 22.0142 116.112 22.3848C116.421 23.1745 116.91 24.4342 116.975 24.5712C117.206 25.0654 117.4 25.2669 118.121 24.9875C119.103 24.6115 120.803 24.0689 122.441 24.0689C123.968 24.0689 126.15 24.7941 126.15 27.045V28.0253C126.15 28.0253 124.514 26.7898 121.351 26.7898C117.607 26.7898 114.589 29.1857 114.589 32.4894C114.589 36.1557 117.569 38.2615 120.805 38.2615C124.695 38.2615 126.475 35.648 126.475 35.648V37.8263H130.51V26.6098C130.51 22.6884 127.602 20.1851 122.659 20.1851ZM126.147 32.6371C126.147 32.6371 124.765 34.6328 122.147 34.6328C120.803 34.6328 119.022 34.2325 119.022 32.4168C119.022 30.5662 120.875 29.9834 122.22 29.9834C124.584 29.9834 126.147 30.8536 126.147 30.8536V32.6371Z" fill="#2F469C"/>
<path d="M90.4459 8.76692C91.6348 8.76692 92.5977 7.80535 92.5977 6.61817V4.29751H135.093H135.12C137.979 4.29751 140.631 5.37189 142.592 7.32457C144.593 9.32022 145.696 11.9981 145.696 14.8694C145.696 16.0566 146.659 17.0181 147.848 17.0181C149.037 17.0181 150 16.0566 150 14.8694C150 10.8485 148.448 7.08821 145.632 4.28139C142.969 1.63037 139.424 0.126239 135.599 0.0107438C135.526 0.00268593 135.451 0 135.378 0H135.123H135.091H90.4459C89.257 0 88.2941 0.961568 88.2941 2.14876C88.2941 2.24008 88.3021 2.32871 88.3129 2.41735C88.3021 2.50599 88.2941 2.59462 88.2941 2.68594V6.61817C88.2941 7.80535 89.257 8.76692 90.4459 8.76692Z" fill="#2F469C"/>
<path d="M127.105 46.2143H118.772C118.766 46.2143 118.761 46.2143 118.756 46.2143H118.753C118.75 46.2143 118.745 46.2143 118.742 46.2143C118.675 46.2143 118.608 46.217 118.54 46.2251C118.514 46.2277 118.487 46.2331 118.46 46.2358C118.417 46.2412 118.376 46.2465 118.333 46.2546C118.282 46.2654 118.234 46.2788 118.185 46.2922C118.167 46.2976 118.148 46.3003 118.129 46.3056C118.054 46.3298 117.978 46.354 117.906 46.3862L102.103 52.956V48.3631C102.103 47.1759 101.14 46.2143 99.9515 46.2143H92.595V43.6761C92.595 42.4889 91.6321 41.5273 90.4432 41.5273C89.2543 41.5273 88.2914 42.4889 88.2914 43.6761V48.3631C88.2914 49.5503 89.2543 50.5118 90.4432 50.5118H97.7997V56.1577C97.7997 56.2356 97.8024 56.3162 97.8104 56.394C97.8131 56.4128 97.8158 56.4343 97.8185 56.4531C97.8239 56.5015 97.832 56.5525 97.84 56.6009C97.8481 56.6438 97.8589 56.6841 97.8723 56.7271C97.8804 56.754 97.8858 56.7781 97.8911 56.805C97.91 56.8695 97.9342 56.9339 97.9584 56.9957C97.9611 56.9984 97.9611 57.0038 97.9611 57.0064C97.9987 57.0978 98.0445 57.1837 98.0956 57.2697C98.1063 57.2885 98.1198 57.3073 98.1305 57.3288C98.1789 57.4066 98.2327 57.4819 98.2919 57.5517C98.3027 57.5651 98.3161 57.5759 98.3269 57.5893C98.378 57.6484 98.4318 57.7021 98.4883 57.7531C98.5071 57.7719 98.5259 57.788 98.5474 57.8069C98.6147 57.8659 98.6873 57.9197 98.7626 57.9707C98.7734 57.9788 98.7868 57.9841 98.7976 57.9922C98.8675 58.0378 98.9402 58.0781 99.0155 58.113C99.0316 58.1211 99.0477 58.1292 99.0639 58.1372C99.1499 58.1775 99.2387 58.2097 99.3302 58.2393C99.3382 58.242 99.3436 58.242 99.3517 58.2447C99.4324 58.2688 99.5158 58.2849 99.6018 58.3011C99.626 58.3064 99.6502 58.3091 99.6744 58.3118C99.7578 58.3226 99.8439 58.3306 99.9327 58.3306C99.9407 58.3306 99.9461 58.3333 99.9542 58.3333C100.027 58.3333 100.099 58.3279 100.172 58.3226C100.186 58.3226 100.199 58.3172 100.212 58.3172C100.269 58.3091 100.323 58.3038 100.379 58.293C100.425 58.2849 100.471 58.2715 100.516 58.2581C100.538 58.2527 100.559 58.2473 100.581 58.242C100.645 58.2232 100.707 58.199 100.769 58.1748C100.772 58.1721 100.777 58.1721 100.78 58.1695H100.783C100.788 58.1668 100.793 58.1641 100.799 58.1641L119.186 50.5199H127.107C128.296 50.5199 129.259 49.5583 129.259 48.3711C129.259 47.1839 128.294 46.2143 127.105 46.2143Z" fill="#2F469C"/>
<path d="M148.098 19.9915C146.99 19.5617 145.745 20.1123 145.314 21.219L141.005 32.3334L135.725 21.0524L135.72 21.0551C135.365 20.3353 134.625 19.8384 133.767 19.8384C132.565 19.8384 131.591 20.8107 131.591 22.0113C131.591 22.3014 131.65 22.5807 131.753 22.8332L131.747 22.8359L138.765 38.1162L137.67 40.9418C137.565 41.1782 137.46 41.4199 137.353 41.667C136.809 42.916 135.545 45.8141 134.765 46.2143C133.611 46.2519 132.686 47.2001 132.686 48.3631C132.686 49.5503 133.649 50.5119 134.838 50.5119C138.192 50.5119 139.916 46.5581 141.299 43.3834C141.409 43.1282 141.519 42.8784 141.627 42.634C141.64 42.6044 141.654 42.5722 141.664 42.54L149.327 22.7714C149.755 21.6648 149.206 20.4185 148.098 19.9915Z" fill="#2F469C"/>
</svg>
