<?xml version="1.0" encoding="utf-8"?>
<!-- Generator: Adobe Illustrator 28.2.0, SVG Export Plug-In . SVG Version: 6.00 Build 0)  -->
<svg version="1.1" id="Layer_1" xmlns="http://www.w3.org/2000/svg" xmlns:xlink="http://www.w3.org/1999/xlink" x="0px" y="0px"
	 width="100px" height="100px" viewBox="0 0 100 100" style="enable-background:new 0 0 100 100;" xml:space="preserve">
<style type="text/css">
	.st0{fill:#5D22AB;}
</style>
<path class="st0" d="M49.8,25.6l5.9-9.7c2.3-3.8,6.6-6.1,11.1-6.1h0.5c6.9,0,12.5,5.6,12.5,12.5c0,3-0.9,5.5-2.5,7.5h5
	c4.1,0,7.5,3.4,7.5,7.5v10c0,3.3-2.2,6.1-5,7.2v25.3c0,5.6-4.5,10-10,10h-50c-5.6,0-10-4.4-10-10V54.5c-3-1.1-5-3.9-5-7.2v-10
	c0-4.1,3.3-7.5,7.5-7.5h4.8c-1.6-2-2.3-4.5-2.3-7.5c0-6.9,5.5-12.5,12.5-12.5h0.3c4.5,0,8.8,2.3,11.1,6.1L49.8,25.6z M66.9,14.8
	c-2.8,0-5.3,1.6-6.9,3.8l-7,11.2h14.4c4.1,0,7.5-3.3,7.5-7.5c0-4.1-3.4-7.5-7.5-7.5H66.9z M46.6,29.8l-7-11.2
	c-1.6-2.2-4.1-3.8-6.9-3.8h-0.3c-4.2,0-7.5,3.4-7.5,7.5c0,4.2,3.3,7.5,7.5,7.5H46.6z M17.3,34.8c-1.4,0-2.5,1.2-2.5,2.5v10
	c0,1.4,1.1,2.5,2.5,2.5h30v-15H17.3z M52.3,49.8h30c1.2,0,2.5-1.1,2.5-2.5v-10c0-1.2-1.2-2.5-2.5-2.5h-30V49.8z M47.3,54.8H19.8v25
	c0,2.8,2.2,5,5,5h22.5V54.8z M52.3,84.8h22.5c2.7,0,5-2.2,5-5v-25H52.3V84.8z"/>
</svg>
