<?xml version="1.0" encoding="utf-8"?>
<!-- Generator: Adobe Illustrator 28.2.0, SVG Export Plug-In . SVG Version: 6.00 Build 0)  -->
<svg version="1.1" id="Layer_1" xmlns="http://www.w3.org/2000/svg" xmlns:xlink="http://www.w3.org/1999/xlink" x="0px" y="0px"
	 width="100px" height="100px" viewBox="0 0 100 100" style="enable-background:new 0 0 100 100;" xml:space="preserve">
<style type="text/css">
	.st0{fill:#5D22AB;}
</style>
<path class="st0" d="M23.9,39.8c3.4,0,6.2,2.8,6.2,6.2v32.5c0,3.6-2.8,6.2-6.2,6.2h-7.5c-3.6,0-6.3-2.7-6.3-6.2V46.1
	c0-3.4,2.7-6.2,6.3-6.2H23.9z M25.2,78.6V46.1c0-0.6-0.6-1.2-1.2-1.2h-7.5c-0.8,0-1.2,0.6-1.2,1.2v32.5c0,0.8,0.5,1.2,1.2,1.2h7.5
	C24.5,79.8,25.2,79.4,25.2,78.6z M90.2,44.5c0,3.8-2.2,7-5.5,8.6c0.5,0.9,0.6,2.2,0.6,3.3c0,3.6-2,6.7-5,8.4
	c0.2,0.6,0.3,1.4,0.3,2.2c0,3.4-1.9,6.6-4.7,8.3c0,5.3-4.4,9.5-9.7,9.5h-8.7C45.2,84.8,35,75,35.2,72.3c0-1.2,1.1-2.5,2.5-2.5
	c3,0,7,10,19.8,10h8.7c2.5,0,4.7-2,4.7-4.5c0-0.8-0.3-0.9-0.3-1.6c0-3.3,5-1.9,5-6.7c0-2-1.1-2.3-1.1-3.7c0-1.4,1.1-2.2,2-2.3
	c2.2-0.5,3.8-2.3,3.8-4.5c0-2.8-1.9-3-1.9-4.8c0-1.2,1.1-2.3,2.3-2.5c2.3-0.2,4.4-2.2,4.4-4.5c0-2.5-2.2-4.7-4.7-4.7h-20
	c-1.2,0-2.5-0.9-2.5-2.5c0-0.3,0-0.8,0.3-1.1c2.7-5,4.1-10.3,4.1-11.9c0-1.9-1.4-4.5-4.7-4.5c-2.5,0-3,0.8-4.4,5.2
	c-3.4,10.5-5.8,10.9-13.9,19.2c-0.5,0.5-1.1,0.6-1.7,0.6c-1.4,0-2.5-0.9-2.5-2.5c0-3.6,9.1-5.6,13.3-18.9c1.4-3.9,2.8-8.6,9.2-8.6
	c6.1,0,9.7,4.8,9.7,9.5c0,2.2-1.1,6.2-2.8,10.5h15.9C85.8,34.8,90.2,39.2,90.2,44.5z"/>
</svg>
