<?xml version="1.0" encoding="utf-8"?>
<!-- Generator: Adobe Illustrator 27.3.1, SVG Export Plug-In . SVG Version: 6.00 Build 0)  -->
<svg version="1.1" id="btn-instagram" xmlns="http://www.w3.org/2000/svg" xmlns:xlink="http://www.w3.org/1999/xlink" x="0px"
	 y="0px" width="33px" height="33px" viewBox="0 0 33 33" style="enable-background:new 0 0 33 33;" xml:space="preserve">
<style type="text/css">
	.st0{fill:#FFFFFF;}
	.st1{fill:none;stroke:#5C6AC1;stroke-width:2;}
	.st2{enable-background:new    ;}
	.st3{fill:#5C6AC1;}
</style>
<g id="Ellipse_828" transform="translate(0)">
	<circle class="st0" cx="16.5" cy="16.5" r="16.5"/>
	<circle class="st1" cx="16.5" cy="16.5" r="15.5"/>
</g>
<g class="st2">
	<path class="st3" d="M23.9,19.6c-0.1,1.2-0.3,2.2-1.2,3.1c-0.9,0.9-1.9,1.1-3.1,1.2c-1.2,0.1-4.9,0.1-6.1,0
		c-1.2-0.1-2.2-0.3-3.1-1.2c-0.9-0.9-1.1-1.9-1.2-3.1c-0.1-1.2-0.1-4.9,0-6.1c0.1-1.2,0.3-2.2,1.2-3.1c0.9-0.9,1.9-1.1,3.1-1.2
		c1.2-0.1,4.9-0.1,6.1,0c1.2,0.1,2.2,0.3,3.1,1.2c0.9,0.9,1.1,1.9,1.2,3.1C24,14.7,24,18.3,23.9,19.6z M22.6,16.5
		c0-1.1,0.1-3.4-0.3-4.4c-0.3-0.7-0.8-1.2-1.4-1.4c-1-0.4-3.3-0.3-4.4-0.3s-3.4-0.1-4.4,0.3c-0.7,0.3-1.2,0.8-1.4,1.4
		c-0.4,1-0.3,3.3-0.3,4.4c0,1.1-0.1,3.4,0.3,4.4c0.3,0.7,0.8,1.2,1.4,1.4c1,0.4,3.3,0.3,4.4,0.3s3.4,0.1,4.4-0.3
		c0.7-0.3,1.2-0.8,1.4-1.4C22.7,19.9,22.6,17.6,22.6,16.5z M20.3,16.5c0,2.1-1.7,3.8-3.8,3.8s-3.8-1.7-3.8-3.8
		c0-2.1,1.7-3.8,3.8-3.8S20.3,14.4,20.3,16.5z M19,16.5c0-1.4-1.1-2.5-2.5-2.5c-1.4,0-2.5,1.1-2.5,2.5c0,1.4,1.1,2.5,2.5,2.5
		S19,17.9,19,16.5z M20.5,11.6c-0.5,0-0.9,0.4-0.9,0.9s0.4,0.9,0.9,0.9c0.5,0,0.9-0.4,0.9-0.9C21.4,12,21,11.6,20.5,11.6z"/>
</g>
</svg>
