<?xml version="1.0" encoding="utf-8"?>
<!-- Generator: Adobe Illustrator 27.3.1, SVG Export Plug-In . SVG Version: 6.00 Build 0)  -->
<svg version="1.1" id="btn-facebook" xmlns="http://www.w3.org/2000/svg" xmlns:xlink="http://www.w3.org/1999/xlink" x="0px"
	 y="0px" width="33px" height="33px" viewBox="0 0 33 33" style="enable-background:new 0 0 33 33;" xml:space="preserve">
<style type="text/css">
	.st0{fill:#5C6AC1;}
</style>
<path class="st0" d="M20.4,13.5h-2.7v-1.8c0-0.7,0.4-0.8,0.7-0.8c0.3,0,1.9,0,1.9,0V8l-2.6,0c-2.9,0-3.6,2.2-3.6,3.6v1.9h-1.7v3h1.7
	c0,3.8,0,8.5,0,8.5h3.5c0,0,0-4.7,0-8.5h2.4L20.4,13.5z"/>
<path class="st0" d="M16.5,0C7.4,0,0,7.4,0,16.5S7.4,33,16.5,33C25.6,33,33,25.6,33,16.5S25.6,0,16.5,0z M16.5,31
	C8.5,31,2,24.5,2,16.5C2,8.5,8.5,2,16.5,2C24.5,2,31,8.5,31,16.5C31,24.5,24.5,31,16.5,31z"/>
</svg>
