<?xml version="1.0" encoding="utf-8"?>
<!-- Generator: Adobe Illustrator 27.3.1, SVG Export Plug-In . SVG Version: 6.00 Build 0)  -->
<svg version="1.1" id="btn-instagram" xmlns="http://www.w3.org/2000/svg" xmlns:xlink="http://www.w3.org/1999/xlink" x="0px"
	 y="0px" width="33px" height="33px" viewBox="0 0 33 33" style="enable-background:new 0 0 33 33;" xml:space="preserve">
<style type="text/css">
	.st0{fill:#5C6AC1;}
</style>
<g>
	<path class="st0" d="M16.5,12.6c-2.1,0-3.8,1.7-3.8,3.8s1.7,3.8,3.8,3.8s3.8-1.7,3.8-3.8S18.6,12.6,16.5,12.6z M16.5,18.9
		c-1.3,0-2.5-1.1-2.5-2.5s1.1-2.5,2.5-2.5s2.5,1.1,2.5,2.5S17.8,18.9,16.5,18.9z"/>
	<circle class="st0" cx="20.5" cy="12.5" r="0.9"/>
	<path class="st0" d="M22.7,10.3c-0.8-0.8-1.9-1.2-3.1-1.2h-6.2c-2.6,0-4.3,1.7-4.3,4.3v6.1c0,1.3,0.4,2.4,1.3,3.2
		c0.8,0.8,1.9,1.2,3.1,1.2h6.1c1.3,0,2.4-0.4,3.1-1.2c0.8-0.8,1.2-1.9,1.2-3.2v-6.2C23.9,12.2,23.5,11.1,22.7,10.3z M22.6,19.6
		c0,0.9-0.3,1.7-0.9,2.2c-0.5,0.5-1.3,0.8-2.2,0.8h-6.1c-0.9,0-1.6-0.3-2.2-0.8c-0.5-0.5-0.8-1.3-0.8-2.2v-6.1
		c0-0.9,0.3-1.6,0.8-2.2c0.5-0.5,1.3-0.8,2.2-0.8h6.2c0.9,0,1.6,0.3,2.2,0.8c0.5,0.5,0.8,1.3,0.8,2.2V19.6L22.6,19.6z"/>
</g>
<path class="st0" d="M16.5,0C7.4,0,0,7.4,0,16.5S7.4,33,16.5,33C25.6,33,33,25.6,33,16.5S25.6,0,16.5,0z M16.5,31
	C8.5,31,2,24.5,2,16.5C2,8.5,8.5,2,16.5,2C24.5,2,31,8.5,31,16.5C31,24.5,24.5,31,16.5,31z"/>
</svg>
